<svg xmlns="http://www.w3.org/2000/svg" width="1000" height="259" viewBox="0 0 1000 259" role="img"><title>ErwinB23 contribution calendar 2025-09-14 — 2026-09-19</title><style>text{font-family:Segoe UI,Arial,sans-serif}</style><rect x="1" y="1" width="998" height="257" rx="18" fill="#11182b" stroke="#303c59"/><text x="32" y="39" font-size="14" fill="#a5b4fc" letter-spacing="2">EVERY STEP COUNTS</text><text x="32" y="64" font-size="13" fill="#a6b1cc" >2025-09-14 — 2026-09-19</text><rect x="32" y="82" width="13.5" height="13.5" rx="3" fill="#202b43"><title>2025-09-14: 0</title></rect><rect x="32" y="99.4" width="13.5" height="13.5" rx="3" fill="#202b43"><title>2025-09-15: 0</title></rect><rect x="32" y="116.8" width="13.5" height="13.5" rx="3" fill="#202b43"><title>2025-09-16: 0</title></rect><rect x="32" y="134.2" width="13.5" height="13.5" rx="3" fill="#202b43"><title>2025-09-17: 0</title></rect><rect x="32" y="151.6" width="13.5" height="13.5" rx="3" fill="#202b43"><title>2025-09-18: 0</title></rect><rect x="32" y="169" width="13.5" height="13.5" rx="3" fill="#202b43"><title>2025-09-19: 0</title></rect><rect x="32" y="186.39999999999998" width="13.5" height="13.5" rx="3" fill="#202b43"><title>2025-09-20: 0</title></rect><rect x="49.4" y="82" width="13.5" height="13.5" rx="3" fill="#202b43"><title>2025-09-21: 0</title></rect><rect x="49.4" y="99.4" width="13.5" height="13.5" rx="3" fill="#202b43"><title>2025-09-22: 0</title></rect><rect x="49.4" y="116.8" width="13.5" height="13.5" rx="3" fill="#202b43"><title>2025-09-23: 0</title></rect><rect x="49.4" y="134.2" width="13.5" height="13.5" rx="3" fill="#202b43"><title>2025-09-24: 0</title></rect><rect x="49.4" y="151.6" width="13.5" height="13.5" rx="3" fill="#202b43"><title>2025-09-25: 0</title></rect><rect x="49.4" y="169" width="13.5" height="13.5" rx="3" fill="#202b43"><title>2025-09-26: 0</title></rect><rect x="49.4" y="186.39999999999998" width="13.5" height="13.5" rx="3" fill="#202b43"><title>2025-09-27: 0</title></rect><rect x="66.8" y="82" width="13.5" height="13.5" rx="3" fill="#202b43"><title>2025-09-28: 0</title></rect><rect x="66.8" y="99.4" width="13.5" height="13.5" rx="3" fill="#202b43"><title>2025-09-29: 0</title></rect><rect x="66.8" y="116.8" width="13.5" height="13.5" rx="3" fill="#202b43"><title>2025-09-30: 0</title></rect><rect x="66.8" y="134.2" width="13.5" height="13.5" rx="3" fill="#202b43"><title>2025-10-01: 0</title></rect><rect x="66.8" y="151.6" width="13.5" height="13.5" rx="3" fill="#202b43"><title>2025-10-02: 0</title></rect><rect x="66.8" y="169" width="13.5" height="13.5" rx="3" fill="#202b43"><title>2025-10-03: 0</title></rect><rect x="66.8" y="186.39999999999998" width="13.5" height="13.5" rx="3" fill="#202b43"><title>2025-10-04: 0</title></rect><rect x="84.19999999999999" y="82" width="13.5" height="13.5" rx="3" fill="#202b43"><title>2025-10-05: 0</title></rect><rect x="84.19999999999999" y="99.4" width="13.5" height="13.5" rx="3" fill="#202b43"><title>2025-10-06: 0</title></rect><rect x="84.19999999999999" y="116.8" width="13.5" height="13.5" rx="3" fill="#202b43"><title>2025-10-07: 0</title></rect><rect x="84.19999999999999" y="134.2" width="13.5" height="13.5" rx="3" fill="#202b43"><title>2025-10-08: 0</title></rect><rect x="84.19999999999999" y="151.6" width="13.5" height="13.5" rx="3" fill="#202b43"><title>2025-10-09: 0</title></rect><rect x="84.19999999999999" y="169" width="13.5" height="13.5" rx="3" fill="#202b43"><title>2025-10-10: 0</title></rect><rect x="84.19999999999999" y="186.39999999999998" width="13.5" height="13.5" rx="3" fill="#202b43"><title>2025-10-11: 0</title></rect><rect x="101.6" y="82" width="13.5" height="13.5" rx="3" fill="#202b43"><title>2025-10-12: 0</title></rect><rect x="101.6" y="99.4" width="13.5" height="13.5" rx="3" fill="#202b43"><title>2025-10-13: 0</title></rect><rect x="101.6" y="116.8" width="13.5" height="13.5" rx="3" fill="#202b43"><title>2025-10-14: 0</title></rect><rect x="101.6" y="134.2" width="13.5" height="13.5" rx="3" fill="#202b43"><title>2025-10-15: 0</title></rect><rect x="101.6" y="151.6" width="13.5" height="13.5" rx="3" fill="#202b43"><title>2025-10-16: 0</title></rect><rect x="101.6" y="169" width="13.5" height="13.5" rx="3" fill="#202b43"><title>2025-10-17: 0</title></rect><rect x="101.6" y="186.39999999999998" width="13.5" height="13.5" rx="3" fill="#202b43"><title>2025-10-18: 0</title></rect><rect x="119" y="82" width="13.5" height="13.5" rx="3" fill="#202b43"><title>2025-10-19: 0</title></rect><rect x="119" y="99.4" width="13.5" height="13.5" rx="3" fill="#202b43"><title>2025-10-20: 0</title></rect><rect x="119" y="116.8" width="13.5" height="13.5" rx="3" fill="#202b43"><title>2025-10-21: 0</title></rect><rect x="119" y="134.2" width="13.5" height="13.5" rx="3" fill="#202b43"><title>2025-10-22: 0</title></rect><rect x="119" y="151.6" width="13.5" height="13.5" rx="3" fill="#202b43"><title>2025-10-23: 0</title></rect><rect x="119" y="169" width="13.5" height="13.5" rx="3" fill="#202b43"><title>2025-10-24: 0</title></rect><rect x="119" y="186.39999999999998" width="13.5" height="13.5" rx="3" fill="#202b43"><title>2025-10-25: 0</title></rect><rect x="136.39999999999998" y="82" width="13.5" height="13.5" rx="3" fill="#202b43"><title>2025-10-26: 0</title></rect><rect x="136.39999999999998" y="99.4" width="13.5" height="13.5" rx="3" fill="#202b43"><title>2025-10-27: 0</title></rect><rect x="136.39999999999998" y="116.8" width="13.5" height="13.5" rx="3" fill="#202b43"><title>2025-10-28: 0</title></rect><rect x="136.39999999999998" y="134.2" width="13.5" height="13.5" rx="3" fill="#202b43"><title>2025-10-29: 0</title></rect><rect x="136.39999999999998" y="151.6" width="13.5" height="13.5" rx="3" fill="#202b43"><title>2025-10-30: 0</title></rect><rect x="136.39999999999998" y="169" width="13.5" height="13.5" rx="3" fill="#202b43"><title>2025-10-31: 0</title></rect><rect x="136.39999999999998" y="186.39999999999998" width="13.5" height="13.5" rx="3" fill="#202b43"><title>2025-11-01: 0</title></rect><rect x="153.79999999999998" y="82" width="13.5" height="13.5" rx="3" fill="#202b43"><title>2025-11-02: 0</title></rect><rect x="153.79999999999998" y="99.4" width="13.5" height="13.5" rx="3" fill="#202b43"><title>2025-11-03: 0</title></rect><rect x="153.79999999999998" y="116.8" width="13.5" height="13.5" rx="3" fill="#202b43"><title>2025-11-04: 0</title></rect><rect x="153.79999999999998" y="134.2" width="13.5" height="13.5" rx="3" fill="#202b43"><title>2025-11-05: 0</title></rect><rect x="153.79999999999998" y="151.6" width="13.5" height="13.5" rx="3" fill="#202b43"><title>2025-11-06: 0</title></rect><rect x="153.79999999999998" y="169" width="13.5" height="13.5" rx="3" fill="#202b43"><title>2025-11-07: 0</title></rect><rect x="153.79999999999998" y="186.39999999999998" width="13.5" height="13.5" rx="3" fill="#202b43"><title>2025-11-08: 0</title></rect><rect x="171.2" y="82" width="13.5" height="13.5" rx="3" fill="#202b43"><title>2025-11-09: 0</title></rect><rect x="171.2" y="99.4" width="13.5" height="13.5" rx="3" fill="#202b43"><title>2025-11-10: 0</title></rect><rect x="171.2" y="116.8" width="13.5" height="13.5" rx="3" fill="#202b43"><title>2025-11-11: 0</title></rect><rect x="171.2" y="134.2" width="13.5" height="13.5" rx="3" fill="#202b43"><title>2025-11-12: 0</title></rect><rect x="171.2" y="151.6" width="13.5" height="13.5" rx="3" fill="#202b43"><title>2025-11-13: 0</title></rect><rect x="171.2" y="169" width="13.5" height="13.5" rx="3" fill="#202b43"><title>2025-11-14: 0</title></rect><rect x="171.2" y="186.39999999999998" width="13.5" height="13.5" rx="3" fill="#202b43"><title>2025-11-15: 0</title></rect><rect x="188.6" y="82" width="13.5" height="13.5" rx="3" fill="#202b43"><title>2025-11-16: 0</title></rect><rect x="188.6" y="99.4" width="13.5" height="13.5" rx="3" fill="#202b43"><title>2025-11-17: 0</title></rect><rect x="188.6" y="116.8" width="13.5" height="13.5" rx="3" fill="#202b43"><title>2025-11-18: 0</title></rect><rect x="188.6" y="134.2" width="13.5" height="13.5" rx="3" fill="#202b43"><title>2025-11-19: 0</title></rect><rect x="188.6" y="151.6" width="13.5" height="13.5" rx="3" fill="#202b43"><title>2025-11-20: 0</title></rect><rect x="188.6" y="169" width="13.5" height="13.5" rx="3" fill="#202b43"><title>2025-11-21: 0</title></rect><rect x="188.6" y="186.39999999999998" width="13.5" height="13.5" rx="3" fill="#202b43"><title>2025-11-22: 0</title></rect><rect x="206" y="82" width="13.5" height="13.5" rx="3" fill="#202b43"><title>2025-11-23: 0</title></rect><rect x="206" y="99.4" width="13.5" height="13.5" rx="3" fill="#202b43"><title>2025-11-24: 0</title></rect><rect x="206" y="116.8" width="13.5" height="13.5" rx="3" fill="#202b43"><title>2025-11-25: 0</title></rect><rect x="206" y="134.2" width="13.5" height="13.5" rx="3" fill="#202b43"><title>2025-11-26: 0</title></rect><rect x="206" y="151.6" width="13.5" height="13.5" rx="3" fill="#202b43"><title>2025-11-27: 0</title></rect><rect x="206" y="169" width="13.5" height="13.5" rx="3" fill="#202b43"><title>2025-11-28: 0</title></rect><rect x="206" y="186.39999999999998" width="13.5" height="13.5" rx="3" fill="#202b43"><title>2025-11-29: 0</title></rect><rect x="223.39999999999998" y="82" width="13.5" height="13.5" rx="3" fill="#202b43"><title>2025-11-30: 0</title></rect><rect x="223.39999999999998" y="99.4" width="13.5" height="13.5" rx="3" fill="#202b43"><title>2025-12-01: 0</title></rect><rect x="223.39999999999998" y="116.8" width="13.5" height="13.5" rx="3" fill="#202b43"><title>2025-12-02: 0</title></rect><rect x="223.39999999999998" y="134.2" width="13.5" height="13.5" rx="3" fill="#202b43"><title>2025-12-03: 0</title></rect><rect x="223.39999999999998" y="151.6" width="13.5" height="13.5" rx="3" fill="#202b43"><title>2025-12-04: 0</title></rect><rect x="223.39999999999998" y="169" width="13.5" height="13.5" rx="3" fill="#202b43"><title>2025-12-05: 0</title></rect><rect x="223.39999999999998" y="186.39999999999998" width="13.5" height="13.5" rx="3" fill="#202b43"><title>2025-12-06: 0</title></rect><rect x="240.79999999999998" y="82" width="13.5" height="13.5" rx="3" fill="#202b43"><title>2025-12-07: 0</title></rect><rect x="240.79999999999998" y="99.4" width="13.5" height="13.5" rx="3" fill="#202b43"><title>2025-12-08: 0</title></rect><rect x="240.79999999999998" y="116.8" width="13.5" height="13.5" rx="3" fill="#202b43"><title>2025-12-09: 0</title></rect><rect x="240.79999999999998" y="134.2" width="13.5" height="13.5" rx="3" fill="#202b43"><title>2025-12-10: 0</title></rect><rect x="240.79999999999998" y="151.6" width="13.5" height="13.5" rx="3" fill="#202b43"><title>2025-12-11: 0</title></rect><rect x="240.79999999999998" y="169" width="13.5" height="13.5" rx="3" fill="#202b43"><title>2025-12-12: 0</title></rect><rect x="240.79999999999998" y="186.39999999999998" width="13.5" height="13.5" rx="3" fill="#202b43"><title>2025-12-13: 0</title></rect><rect x="258.2" y="82" width="13.5" height="13.5" rx="3" fill="#202b43"><title>2025-12-14: 0</title></rect><rect x="258.2" y="99.4" width="13.5" height="13.5" rx="3" fill="#202b43"><title>2025-12-15: 0</title></rect><rect x="258.2" y="116.8" width="13.5" height="13.5" rx="3" fill="#202b43"><title>2025-12-16: 0</title></rect><rect x="258.2" y="134.2" width="13.5" height="13.5" rx="3" fill="#202b43"><title>2025-12-17: 0</title></rect><rect x="258.2" y="151.6" width="13.5" height="13.5" rx="3" fill="#202b43"><title>2025-12-18: 0</title></rect><rect x="258.2" y="169" width="13.5" height="13.5" rx="3" fill="#202b43"><title>2025-12-19: 0</title></rect><rect x="258.2" y="186.39999999999998" width="13.5" height="13.5" rx="3" fill="#202b43"><title>2025-12-20: 0</title></rect><rect x="275.59999999999997" y="82" width="13.5" height="13.5" rx="3" fill="#202b43"><title>2025-12-21: 0</title></rect><rect x="275.59999999999997" y="99.4" width="13.5" height="13.5" rx="3" fill="#202b43"><title>2025-12-22: 0</title></rect><rect x="275.59999999999997" y="116.8" width="13.5" height="13.5" rx="3" fill="#202b43"><title>2025-12-23: 0</title></rect><rect x="275.59999999999997" y="134.2" width="13.5" height="13.5" rx="3" fill="#202b43"><title>2025-12-24: 0</title></rect><rect x="275.59999999999997" y="151.6" width="13.5" height="13.5" rx="3" fill="#202b43"><title>2025-12-25: 0</title></rect><rect x="275.59999999999997" y="169" width="13.5" height="13.5" rx="3" fill="#202b43"><title>2025-12-26: 0</title></rect><rect x="275.59999999999997" y="186.39999999999998" width="13.5" height="13.5" rx="3" fill="#202b43"><title>2025-12-27: 0</title></rect><rect x="293" y="82" width="13.5" height="13.5" rx="3" fill="#202b43"><title>2025-12-28: 0</title></rect><rect x="293" y="99.4" width="13.5" height="13.5" rx="3" fill="#202b43"><title>2025-12-29: 0</title></rect><rect x="293" y="116.8" width="13.5" height="13.5" rx="3" fill="#202b43"><title>2025-12-30: 0</title></rect><rect x="293" y="134.2" width="13.5" height="13.5" rx="3" fill="#202b43"><title>2025-12-31: 0</title></rect><rect x="293" y="151.6" width="13.5" height="13.5" rx="3" fill="#202b43"><title>2026-01-01: 0</title></rect><rect x="293" y="169" width="13.5" height="13.5" rx="3" fill="#202b43"><title>2026-01-02: 0</title></rect><rect x="293" y="186.39999999999998" width="13.5" height="13.5" rx="3" fill="#202b43"><title>2026-01-03: 0</title></rect><rect x="310.4" y="82" width="13.5" height="13.5" rx="3" fill="#202b43"><title>2026-01-04: 0</title></rect><rect x="310.4" y="99.4" width="13.5" height="13.5" rx="3" fill="#202b43"><title>2026-01-05: 0</title></rect><rect x="310.4" y="116.8" width="13.5" height="13.5" rx="3" fill="#202b43"><title>2026-01-06: 0</title></rect><rect x="310.4" y="134.2" width="13.5" height="13.5" rx="3" fill="#202b43"><title>2026-01-07: 0</title></rect><rect x="310.4" y="151.6" width="13.5" height="13.5" rx="3" fill="#202b43"><title>2026-01-08: 0</title></rect><rect x="310.4" y="169" width="13.5" height="13.5" rx="3" fill="#202b43"><title>2026-01-09: 0</title></rect><rect x="310.4" y="186.39999999999998" width="13.5" height="13.5" rx="3" fill="#202b43"><title>2026-01-10: 0</title></rect><rect x="327.79999999999995" y="82" width="13.5" height="13.5" rx="3" fill="#202b43"><title>2026-01-11: 0</title></rect><rect x="327.79999999999995" y="99.4" width="13.5" height="13.5" rx="3" fill="#202b43"><title>2026-01-12: 0</title></rect><rect x="327.79999999999995" y="116.8" width="13.5" height="13.5" rx="3" fill="#202b43"><title>2026-01-13: 0</title></rect><rect x="327.79999999999995" y="134.2" width="13.5" height="13.5" rx="3" fill="#202b43"><title>2026-01-14: 0</title></rect><rect x="327.79999999999995" y="151.6" width="13.5" height="13.5" rx="3" fill="#202b43"><title>2026-01-15: 0</title></rect><rect x="327.79999999999995" y="169" width="13.5" height="13.5" rx="3" fill="#202b43"><title>2026-01-16: 0</title></rect><rect x="327.79999999999995" y="186.39999999999998" width="13.5" height="13.5" rx="3" fill="#202b43"><title>2026-01-17: 0</title></rect><rect x="345.2" y="82" width="13.5" height="13.5" rx="3" fill="#202b43"><title>2026-01-18: 0</title></rect><rect x="345.2" y="99.4" width="13.5" height="13.5" rx="3" fill="#202b43"><title>2026-01-19: 0</title></rect><rect x="345.2" y="116.8" width="13.5" height="13.5" rx="3" fill="#202b43"><title>2026-01-20: 0</title></rect><rect x="345.2" y="134.2" width="13.5" height="13.5" rx="3" fill="#202b43"><title>2026-01-21: 0</title></rect><rect x="345.2" y="151.6" width="13.5" height="13.5" rx="3" fill="#202b43"><title>2026-01-22: 0</title></rect><rect x="345.2" y="169" width="13.5" height="13.5" rx="3" fill="#202b43"><title>2026-01-23: 0</title></rect><rect x="345.2" y="186.39999999999998" width="13.5" height="13.5" rx="3" fill="#202b43"><title>2026-01-24: 0</title></rect><rect x="362.59999999999997" y="82" width="13.5" height="13.5" rx="3" fill="#202b43"><title>2026-01-25: 0</title></rect><rect x="362.59999999999997" y="99.4" width="13.5" height="13.5" rx="3" fill="#202b43"><title>2026-01-26: 0</title></rect><rect x="362.59999999999997" y="116.8" width="13.5" height="13.5" rx="3" fill="#202b43"><title>2026-01-27: 0</title></rect><rect x="362.59999999999997" y="134.2" width="13.5" height="13.5" rx="3" fill="#202b43"><title>2026-01-28: 0</title></rect><rect x="362.59999999999997" y="151.6" width="13.5" height="13.5" rx="3" fill="#202b43"><title>2026-01-29: 0</title></rect><rect x="362.59999999999997" y="169" width="13.5" height="13.5" rx="3" fill="#202b43"><title>2026-01-30: 0</title></rect><rect x="362.59999999999997" y="186.39999999999998" width="13.5" height="13.5" rx="3" fill="#202b43"><title>2026-01-31: 0</title></rect><rect x="380" y="82" width="13.5" height="13.5" rx="3" fill="#202b43"><title>2026-02-01: 0</title></rect><rect x="380" y="99.4" width="13.5" height="13.5" rx="3" fill="#202b43"><title>2026-02-02: 0</title></rect><rect x="380" y="116.8" width="13.5" height="13.5" rx="3" fill="#202b43"><title>2026-02-03: 0</title></rect><rect x="380" y="134.2" width="13.5" height="13.5" rx="3" fill="#202b43"><title>2026-02-04: 0</title></rect><rect x="380" y="151.6" width="13.5" height="13.5" rx="3" fill="#202b43"><title>2026-02-05: 0</title></rect><rect x="380" y="169" width="13.5" height="13.5" rx="3" fill="#202b43"><title>2026-02-06: 0</title></rect><rect x="380" y="186.39999999999998" width="13.5" height="13.5" rx="3" fill="#202b43"><title>2026-02-07: 0</title></rect><rect x="397.4" y="82" width="13.5" height="13.5" rx="3" fill="#202b43"><title>2026-02-08: 0</title></rect><rect x="397.4" y="99.4" width="13.5" height="13.5" rx="3" fill="#202b43"><title>2026-02-09: 0</title></rect><rect x="397.4" y="116.8" width="13.5" height="13.5" rx="3" fill="#202b43"><title>2026-02-10: 0</title></rect><rect x="397.4" y="134.2" width="13.5" height="13.5" rx="3" fill="#202b43"><title>2026-02-11: 0</title></rect><rect x="397.4" y="151.6" width="13.5" height="13.5" rx="3" fill="#202b43"><title>2026-02-12: 0</title></rect><rect x="397.4" y="169" width="13.5" height="13.5" rx="3" fill="#202b43"><title>2026-02-13: 0</title></rect><rect x="397.4" y="186.39999999999998" width="13.5" height="13.5" rx="3" fill="#202b43"><title>2026-02-14: 0</title></rect><rect x="414.79999999999995" y="82" width="13.5" height="13.5" rx="3" fill="#202b43"><title>2026-02-15: 0</title></rect><rect x="414.79999999999995" y="99.4" width="13.5" height="13.5" rx="3" fill="#202b43"><title>2026-02-16: 0</title></rect><rect x="414.79999999999995" y="116.8" width="13.5" height="13.5" rx="3" fill="#202b43"><title>2026-02-17: 0</title></rect><rect x="414.79999999999995" y="134.2" width="13.5" height="13.5" rx="3" fill="#202b43"><title>2026-02-18: 0</title></rect><rect x="414.79999999999995" y="151.6" width="13.5" height="13.5" rx="3" fill="#202b43"><title>2026-02-19: 0</title></rect><rect x="414.79999999999995" y="169" width="13.5" height="13.5" rx="3" fill="#202b43"><title>2026-02-20: 0</title></rect><rect x="414.79999999999995" y="186.39999999999998" width="13.5" height="13.5" rx="3" fill="#202b43"><title>2026-02-21: 0</title></rect><rect x="432.2" y="82" width="13.5" height="13.5" rx="3" fill="#202b43"><title>2026-02-22: 0</title></rect><rect x="432.2" y="99.4" width="13.5" height="13.5" rx="3" fill="#202b43"><title>2026-02-23: 0</title></rect><rect x="432.2" y="116.8" width="13.5" height="13.5" rx="3" fill="#202b43"><title>2026-02-24: 0</title></rect><rect x="432.2" y="134.2" width="13.5" height="13.5" rx="3" fill="#202b43"><title>2026-02-25: 0</title></rect><rect x="432.2" y="151.6" width="13.5" height="13.5" rx="3" fill="#202b43"><title>2026-02-26: 0</title></rect><rect x="432.2" y="169" width="13.5" height="13.5" rx="3" fill="#202b43"><title>2026-02-27: 0</title></rect><rect x="432.2" y="186.39999999999998" width="13.5" height="13.5" rx="3" fill="#202b43"><title>2026-02-28: 0</title></rect><rect x="449.59999999999997" y="82" width="13.5" height="13.5" rx="3" fill="#202b43"><title>2026-03-01: 0</title></rect><rect x="449.59999999999997" y="99.4" width="13.5" height="13.5" rx="3" fill="#202b43"><title>2026-03-02: 0</title></rect><rect x="449.59999999999997" y="116.8" width="13.5" height="13.5" rx="3" fill="#202b43"><title>2026-03-03: 0</title></rect><rect x="449.59999999999997" y="134.2" width="13.5" height="13.5" rx="3" fill="#202b43"><title>2026-03-04: 0</title></rect><rect x="449.59999999999997" y="151.6" width="13.5" height="13.5" rx="3" fill="#202b43"><title>2026-03-05: 0</title></rect><rect x="449.59999999999997" y="169" width="13.5" height="13.5" rx="3" fill="#202b43"><title>2026-03-06: 0</title></rect><rect x="449.59999999999997" y="186.39999999999998" width="13.5" height="13.5" rx="3" fill="#202b43"><title>2026-03-07: 0</title></rect><rect x="466.99999999999994" y="82" width="13.5" height="13.5" rx="3" fill="#202b43"><title>2026-03-08: 0</title></rect><rect x="466.99999999999994" y="99.4" width="13.5" height="13.5" rx="3" fill="#202b43"><title>2026-03-09: 0</title></rect><rect x="466.99999999999994" y="116.8" width="13.5" height="13.5" rx="3" fill="#202b43"><title>2026-03-10: 0</title></rect><rect x="466.99999999999994" y="134.2" width="13.5" height="13.5" rx="3" fill="#202b43"><title>2026-03-11: 0</title></rect><rect x="466.99999999999994" y="151.6" width="13.5" height="13.5" rx="3" fill="#202b43"><title>2026-03-12: 0</title></rect><rect x="466.99999999999994" y="169" width="13.5" height="13.5" rx="3" fill="#202b43"><title>2026-03-13: 0</title></rect><rect x="466.99999999999994" y="186.39999999999998" width="13.5" height="13.5" rx="3" fill="#202b43"><title>2026-03-14: 0</title></rect><rect x="484.4" y="82" width="13.5" height="13.5" rx="3" fill="#202b43"><title>2026-03-15: 0</title></rect><rect x="484.4" y="99.4" width="13.5" height="13.5" rx="3" fill="#202b43"><title>2026-03-16: 0</title></rect><rect x="484.4" y="116.8" width="13.5" height="13.5" rx="3" fill="#202b43"><title>2026-03-17: 0</title></rect><rect x="484.4" y="134.2" width="13.5" height="13.5" rx="3" fill="#202b43"><title>2026-03-18: 0</title></rect><rect x="484.4" y="151.6" width="13.5" height="13.5" rx="3" fill="#202b43"><title>2026-03-19: 0</title></rect><rect x="484.4" y="169" width="13.5" height="13.5" rx="3" fill="#202b43"><title>2026-03-20: 0</title></rect><rect x="484.4" y="186.39999999999998" width="13.5" height="13.5" rx="3" fill="#202b43"><title>2026-03-21: 0</title></rect><rect x="501.79999999999995" y="82" width="13.5" height="13.5" rx="3" fill="#202b43"><title>2026-03-22: 0</title></rect><rect x="501.79999999999995" y="99.4" width="13.5" height="13.5" rx="3" fill="#202b43"><title>2026-03-23: 0</title></rect><rect x="501.79999999999995" y="116.8" width="13.5" height="13.5" rx="3" fill="#202b43"><title>2026-03-24: 0</title></rect><rect x="501.79999999999995" y="134.2" width="13.5" height="13.5" rx="3" fill="#202b43"><title>2026-03-25: 0</title></rect><rect x="501.79999999999995" y="151.6" width="13.5" height="13.5" rx="3" fill="#202b43"><title>2026-03-26: 0</title></rect><rect x="501.79999999999995" y="169" width="13.5" height="13.5" rx="3" fill="#202b43"><title>2026-03-27: 0</title></rect><rect x="501.79999999999995" y="186.39999999999998" width="13.5" height="13.5" rx="3" fill="#202b43"><title>2026-03-28: 0</title></rect><rect x="519.1999999999999" y="82" width="13.5" height="13.5" rx="3" fill="#202b43"><title>2026-03-29: 0</title></rect><rect x="519.1999999999999" y="99.4" width="13.5" height="13.5" rx="3" fill="#202b43"><title>2026-03-30: 0</title></rect><rect x="519.1999999999999" y="116.8" width="13.5" height="13.5" rx="3" fill="#202b43"><title>2026-03-31: 0</title></rect><rect x="519.1999999999999" y="134.2" width="13.5" height="13.5" rx="3" fill="#202b43"><title>2026-04-01: 0</title></rect><rect x="519.1999999999999" y="151.6" width="13.5" height="13.5" rx="3" fill="#202b43"><title>2026-04-02: 0</title></rect><rect x="519.1999999999999" y="169" width="13.5" height="13.5" rx="3" fill="#202b43"><title>2026-04-03: 0</title></rect><rect x="519.1999999999999" y="186.39999999999998" width="13.5" height="13.5" rx="3" fill="#202b43"><title>2026-04-04: 0</title></rect><rect x="536.5999999999999" y="82" width="13.5" height="13.5" rx="3" fill="#202b43"><title>2026-04-05: 0</title></rect><rect x="536.5999999999999" y="99.4" width="13.5" height="13.5" rx="3" fill="#202b43"><title>2026-04-06: 0</title></rect><rect x="536.5999999999999" y="116.8" width="13.5" height="13.5" rx="3" fill="#202b43"><title>2026-04-07: 0</title></rect><rect x="536.5999999999999" y="134.2" width="13.5" height="13.5" rx="3" fill="#202b43"><title>2026-04-08: 0</title></rect><rect x="536.5999999999999" y="151.6" width="13.5" height="13.5" rx="3" fill="#202b43"><title>2026-04-09: 0</title></rect><rect x="536.5999999999999" y="169" width="13.5" height="13.5" rx="3" fill="#202b43"><title>2026-04-10: 0</title></rect><rect x="536.5999999999999" y="186.39999999999998" width="13.5" height="13.5" rx="3" fill="#202b43"><title>2026-04-11: 0</title></rect><rect x="554" y="82" width="13.5" height="13.5" rx="3" fill="#202b43"><title>2026-04-12: 0</title></rect><rect x="554" y="99.4" width="13.5" height="13.5" rx="3" fill="#202b43"><title>2026-04-13: 0</title></rect><rect x="554" y="116.8" width="13.5" height="13.5" rx="3" fill="#202b43"><title>2026-04-14: 0</title></rect><rect x="554" y="134.2" width="13.5" height="13.5" rx="3" fill="#202b43"><title>2026-04-15: 0</title></rect><rect x="554" y="151.6" width="13.5" height="13.5" rx="3" fill="#202b43"><title>2026-04-16: 0</title></rect><rect x="554" y="169" width="13.5" height="13.5" rx="3" fill="#202b43"><title>2026-04-17: 0</title></rect><rect x="554" y="186.39999999999998" width="13.5" height="13.5" rx="3" fill="#202b43"><title>2026-04-18: 0</title></rect><rect x="571.4" y="82" width="13.5" height="13.5" rx="3" fill="#202b43"><title>2026-04-19: 0</title></rect><rect x="571.4" y="99.4" width="13.5" height="13.5" rx="3" fill="#202b43"><title>2026-04-20: 0</title></rect><rect x="571.4" y="116.8" width="13.5" height="13.5" rx="3" fill="#202b43"><title>2026-04-21: 0</title></rect><rect x="571.4" y="134.2" width="13.5" height="13.5" rx="3" fill="#202b43"><title>2026-04-22: 0</title></rect><rect x="571.4" y="151.6" width="13.5" height="13.5" rx="3" fill="#202b43"><title>2026-04-23: 0</title></rect><rect x="571.4" y="169" width="13.5" height="13.5" rx="3" fill="#202b43"><title>2026-04-24: 0</title></rect><rect x="571.4" y="186.39999999999998" width="13.5" height="13.5" rx="3" fill="#202b43"><title>2026-04-25: 0</title></rect><rect x="588.8" y="82" width="13.5" height="13.5" rx="3" fill="#202b43"><title>2026-04-26: 0</title></rect><rect x="588.8" y="99.4" width="13.5" height="13.5" rx="3" fill="#334b86"><title>2026-04-27: 2</title></rect><rect x="588.8" y="116.8" width="13.5" height="13.5" rx="3" fill="#202b43"><title>2026-04-28: 0</title></rect><rect x="588.8" y="134.2" width="13.5" height="13.5" rx="3" fill="#202b43"><title>2026-04-29: 0</title></rect><rect x="588.8" y="151.6" width="13.5" height="13.5" rx="3" fill="#202b43"><title>2026-04-30: 0</title></rect><rect x="588.8" y="169" width="13.5" height="13.5" rx="3" fill="#202b43"><title>2026-05-01: 0</title></rect><rect x="588.8" y="186.39999999999998" width="13.5" height="13.5" rx="3" fill="#202b43"><title>2026-05-02: 0</title></rect><rect x="606.1999999999999" y="82" width="13.5" height="13.5" rx="3" fill="#202b43"><title>2026-05-03: 0</title></rect><rect x="606.1999999999999" y="99.4" width="13.5" height="13.5" rx="3" fill="#202b43"><title>2026-05-04: 0</title></rect><rect x="606.1999999999999" y="116.8" width="13.5" height="13.5" rx="3" fill="#202b43"><title>2026-05-05: 0</title></rect><rect x="606.1999999999999" y="134.2" width="13.5" height="13.5" rx="3" fill="#202b43"><title>2026-05-06: 0</title></rect><rect x="606.1999999999999" y="151.6" width="13.5" height="13.5" rx="3" fill="#202b43"><title>2026-05-07: 0</title></rect><rect x="606.1999999999999" y="169" width="13.5" height="13.5" rx="3" fill="#202b43"><title>2026-05-08: 0</title></rect><rect x="606.1999999999999" y="186.39999999999998" width="13.5" height="13.5" rx="3" fill="#202b43"><title>2026-05-09: 0</title></rect><rect x="623.5999999999999" y="82" width="13.5" height="13.5" rx="3" fill="#202b43"><title>2026-05-10: 0</title></rect><rect x="623.5999999999999" y="99.4" width="13.5" height="13.5" rx="3" fill="#202b43"><title>2026-05-11: 0</title></rect><rect x="623.5999999999999" y="116.8" width="13.5" height="13.5" rx="3" fill="#202b43"><title>2026-05-12: 0</title></rect><rect x="623.5999999999999" y="134.2" width="13.5" height="13.5" rx="3" fill="#202b43"><title>2026-05-13: 0</title></rect><rect x="623.5999999999999" y="151.6" width="13.5" height="13.5" rx="3" fill="#202b43"><title>2026-05-14: 0</title></rect><rect x="623.5999999999999" y="169" width="13.5" height="13.5" rx="3" fill="#334b86"><title>2026-05-15: 3</title></rect><rect x="623.5999999999999" y="186.39999999999998" width="13.5" height="13.5" rx="3" fill="#202b43"><title>2026-05-16: 0</title></rect><rect x="641" y="82" width="13.5" height="13.5" rx="3" fill="#202b43"><title>2026-05-17: 0</title></rect><rect x="641" y="99.4" width="13.5" height="13.5" rx="3" fill="#202b43"><title>2026-05-18: 0</title></rect><rect x="641" y="116.8" width="13.5" height="13.5" rx="3" fill="#202b43"><title>2026-05-19: 0</title></rect><rect x="641" y="134.2" width="13.5" height="13.5" rx="3" fill="#202b43"><title>2026-05-20: 0</title></rect><rect x="641" y="151.6" width="13.5" height="13.5" rx="3" fill="#202b43"><title>2026-05-21: 0</title></rect><rect x="641" y="169" width="13.5" height="13.5" rx="3" fill="#202b43"><title>2026-05-22: 0</title></rect><rect x="641" y="186.39999999999998" width="13.5" height="13.5" rx="3" fill="#202b43"><title>2026-05-23: 0</title></rect><rect x="658.4" y="82" width="13.5" height="13.5" rx="3" fill="#202b43"><title>2026-05-24: 0</title></rect><rect x="658.4" y="99.4" width="13.5" height="13.5" rx="3" fill="#202b43"><title>2026-05-25: 0</title></rect><rect x="658.4" y="116.8" width="13.5" height="13.5" rx="3" fill="#202b43"><title>2026-05-26: 0</title></rect><rect x="658.4" y="134.2" width="13.5" height="13.5" rx="3" fill="#202b43"><title>2026-05-27: 0</title></rect><rect x="658.4" y="151.6" width="13.5" height="13.5" rx="3" fill="#202b43"><title>2026-05-28: 0</title></rect><rect x="658.4" y="169" width="13.5" height="13.5" rx="3" fill="#202b43"><title>2026-05-29: 0</title></rect><rect x="658.4" y="186.39999999999998" width="13.5" height="13.5" rx="3" fill="#202b43"><title>2026-05-30: 0</title></rect><rect x="675.8" y="82" width="13.5" height="13.5" rx="3" fill="#334b86"><title>2026-05-31: 3</title></rect><rect x="675.8" y="99.4" width="13.5" height="13.5" rx="3" fill="#202b43"><title>2026-06-01: 0</title></rect><rect x="675.8" y="116.8" width="13.5" height="13.5" rx="3" fill="#202b43"><title>2026-06-02: 0</title></rect><rect x="675.8" y="134.2" width="13.5" height="13.5" rx="3" fill="#202b43"><title>2026-06-03: 0</title></rect><rect x="675.8" y="151.6" width="13.5" height="13.5" rx="3" fill="#202b43"><title>2026-06-04: 0</title></rect><rect x="675.8" y="169" width="13.5" height="13.5" rx="3" fill="#202b43"><title>2026-06-05: 0</title></rect><rect x="675.8" y="186.39999999999998" width="13.5" height="13.5" rx="3" fill="#202b43"><title>2026-06-06: 0</title></rect><rect x="693.1999999999999" y="82" width="13.5" height="13.5" rx="3" fill="#202b43"><title>2026-06-07: 0</title></rect><rect x="693.1999999999999" y="99.4" width="13.5" height="13.5" rx="3" fill="#202b43"><title>2026-06-08: 0</title></rect><rect x="693.1999999999999" y="116.8" width="13.5" height="13.5" rx="3" fill="#202b43"><title>2026-06-09: 0</title></rect><rect x="693.1999999999999" y="134.2" width="13.5" height="13.5" rx="3" fill="#202b43"><title>2026-06-10: 0</title></rect><rect x="693.1999999999999" y="151.6" width="13.5" height="13.5" rx="3" fill="#202b43"><title>2026-06-11: 0</title></rect><rect x="693.1999999999999" y="169" width="13.5" height="13.5" rx="3" fill="#202b43"><title>2026-06-12: 0</title></rect><rect x="693.1999999999999" y="186.39999999999998" width="13.5" height="13.5" rx="3" fill="#202b43"><title>2026-06-13: 0</title></rect><rect x="710.5999999999999" y="82" width="13.5" height="13.5" rx="3" fill="#202b43"><title>2026-06-14: 0</title></rect><rect x="710.5999999999999" y="99.4" width="13.5" height="13.5" rx="3" fill="#202b43"><title>2026-06-15: 0</title></rect><rect x="710.5999999999999" y="116.8" width="13.5" height="13.5" rx="3" fill="#202b43"><title>2026-06-16: 0</title></rect><rect x="710.5999999999999" y="134.2" width="13.5" height="13.5" rx="3" fill="#202b43"><title>2026-06-17: 0</title></rect><rect x="710.5999999999999" y="151.6" width="13.5" height="13.5" rx="3" fill="#202b43"><title>2026-06-18: 0</title></rect><rect x="710.5999999999999" y="169" width="13.5" height="13.5" rx="3" fill="#202b43"><title>2026-06-19: 0</title></rect><rect x="710.5999999999999" y="186.39999999999998" width="13.5" height="13.5" rx="3" fill="#202b43"><title>2026-06-20: 0</title></rect><rect x="728" y="82" width="13.5" height="13.5" rx="3" fill="#202b43"><title>2026-06-21: 0</title></rect><rect x="728" y="99.4" width="13.5" height="13.5" rx="3" fill="#202b43"><title>2026-06-22: 0</title></rect><rect x="728" y="116.8" width="13.5" height="13.5" rx="3" fill="#202b43"><title>2026-06-23: 0</title></rect><rect x="728" y="134.2" width="13.5" height="13.5" rx="3" fill="#202b43"><title>2026-06-24: 0</title></rect><rect x="728" y="151.6" width="13.5" height="13.5" rx="3" fill="#202b43"><title>2026-06-25: 0</title></rect><rect x="728" y="169" width="13.5" height="13.5" rx="3" fill="#202b43"><title>2026-06-26: 0</title></rect><rect x="728" y="186.39999999999998" width="13.5" height="13.5" rx="3" fill="#202b43"><title>2026-06-27: 0</title></rect><rect x="745.4" y="82" width="13.5" height="13.5" rx="3" fill="#202b43"><title>2026-06-28: 0</title></rect><rect x="745.4" y="99.4" width="13.5" height="13.5" rx="3" fill="#202b43"><title>2026-06-29: 0</title></rect><rect x="745.4" y="116.8" width="13.5" height="13.5" rx="3" fill="#202b43"><title>2026-06-30: 0</title></rect><rect x="745.4" y="134.2" width="13.5" height="13.5" rx="3" fill="#202b43"><title>2026-07-01: 0</title></rect><rect x="745.4" y="151.6" width="13.5" height="13.5" rx="3" fill="#202b43"><title>2026-07-02: 0</title></rect><rect x="745.4" y="169" width="13.5" height="13.5" rx="3" fill="#202b43"><title>2026-07-03: 0</title></rect><rect x="745.4" y="186.39999999999998" width="13.5" height="13.5" rx="3" fill="#202b43"><title>2026-07-04: 0</title></rect><rect x="762.8" y="82" width="13.5" height="13.5" rx="3" fill="#202b43"><title>2026-07-05: 0</title></rect><rect x="762.8" y="99.4" width="13.5" height="13.5" rx="3" fill="#202b43"><title>2026-07-06: 0</title></rect><rect x="762.8" y="116.8" width="13.5" height="13.5" rx="3" fill="#334b86"><title>2026-07-07: 2</title></rect><rect x="762.8" y="134.2" width="13.5" height="13.5" rx="3" fill="#bdebf5"><title>2026-07-08: 37</title></rect><rect x="762.8" y="151.6" width="13.5" height="13.5" rx="3" fill="#202b43"><title>2026-07-09: 0</title></rect><rect x="762.8" y="169" width="13.5" height="13.5" rx="3" fill="#202b43"><title>2026-07-10: 0</title></rect><rect x="762.8" y="186.39999999999998" width="13.5" height="13.5" rx="3" fill="#202b43"><title>2026-07-11: 0</title></rect><rect x="780.1999999999999" y="82" width="13.5" height="13.5" rx="3" fill="#202b43"><title>2026-07-12: 0</title></rect><rect x="780.1999999999999" y="99.4" width="13.5" height="13.5" rx="3" fill="#202b43"><title>2026-07-13: 0</title></rect><rect x="780.1999999999999" y="116.8" width="13.5" height="13.5" rx="3" fill="#bdebf5"><title>2026-07-14: 15</title></rect><rect x="780.1999999999999" y="134.2" width="13.5" height="13.5" rx="3" fill="#334b86"><title>2026-07-15: 4</title></rect><rect x="780.1999999999999" y="151.6" width="13.5" height="13.5" rx="3" fill="#202b43"><title>2026-07-16: 0</title></rect><rect x="780.1999999999999" y="169" width="13.5" height="13.5" rx="3" fill="#334b86"><title>2026-07-17: 4</title></rect><rect x="780.1999999999999" y="186.39999999999998" width="13.5" height="13.5" rx="3" fill="#bdebf5"><title>2026-07-18: 27</title></rect><rect x="797.5999999999999" y="82" width="13.5" height="13.5" rx="3" fill="#202b43"><title>2026-07-19: 0</title></rect><rect x="797.5999999999999" y="99.4" width="13.5" height="13.5" rx="3" fill="#202b43"><title>2026-07-20: 0</title></rect><rect x="797.5999999999999" y="116.8" width="13.5" height="13.5" rx="3" fill="#334b86"><title>2026-07-21: 3</title></rect><rect x="797.5999999999999" y="134.2" width="13.5" height="13.5" rx="3" fill="#202b43"><title>2026-07-22: 0</title></rect><rect x="797.5999999999999" y="151.6" width="13.5" height="13.5" rx="3" fill="#202b43"><title>2026-07-23: 0</title></rect><rect x="797.5999999999999" y="169" width="13.5" height="13.5" rx="3" fill="#202b43"><title>2026-07-24: 0</title></rect><rect x="797.5999999999999" y="186.39999999999998" width="13.5" height="13.5" rx="3" fill="#202b43"><title>2026-07-25: 0</title></rect><rect x="814.9999999999999" y="82" width="13.5" height="13.5" rx="3" fill="#202b43"><title>2026-07-26: 0</title></rect><rect x="814.9999999999999" y="99.4" width="13.5" height="13.5" rx="3" fill="#202b43"><title>2026-07-27: 0</title></rect><rect x="814.9999999999999" y="116.8" width="13.5" height="13.5" rx="3" fill="#202b43"><title>2026-07-28: 0</title></rect><rect x="814.9999999999999" y="134.2" width="13.5" height="13.5" rx="3" fill="#202b43"><title>2026-07-29: 0</title></rect><rect x="814.9999999999999" y="151.6" width="13.5" height="13.5" rx="3" fill="#202b43"><title>2026-07-30: 0</title></rect><rect x="814.9999999999999" y="169" width="13.5" height="13.5" rx="3" fill="#202b43"><title>2026-07-31: 0</title></rect><rect x="814.9999999999999" y="186.39999999999998" width="13.5" height="13.5" rx="3" fill="#202b43"><title>2026-08-01: 0</title></rect><rect x="832.4" y="82" width="13.5" height="13.5" rx="3" fill="#202b43"><title>2026-08-02: 0</title></rect><rect x="832.4" y="99.4" width="13.5" height="13.5" rx="3" fill="#202b43"><title>2026-08-03: 0</title></rect><rect x="832.4" y="116.8" width="13.5" height="13.5" rx="3" fill="#202b43"><title>2026-08-04: 0</title></rect><rect x="832.4" y="134.2" width="13.5" height="13.5" rx="3" fill="#202b43"><title>2026-08-05: 0</title></rect><rect x="832.4" y="151.6" width="13.5" height="13.5" rx="3" fill="#202b43"><title>2026-08-06: 0</title></rect><rect x="832.4" y="169" width="13.5" height="13.5" rx="3" fill="#202b43"><title>2026-08-07: 0</title></rect><rect x="832.4" y="186.39999999999998" width="13.5" height="13.5" rx="3" fill="#202b43"><title>2026-08-08: 0</title></rect><rect x="849.8" y="82" width="13.5" height="13.5" rx="3" fill="#202b43"><title>2026-08-09: 0</title></rect><rect x="849.8" y="99.4" width="13.5" height="13.5" rx="3" fill="#202b43"><title>2026-08-10: 0</title></rect><rect x="849.8" y="116.8" width="13.5" height="13.5" rx="3" fill="#202b43"><title>2026-08-11: 0</title></rect><rect x="849.8" y="134.2" width="13.5" height="13.5" rx="3" fill="#202b43"><title>2026-08-12: 0</title></rect><rect x="849.8" y="151.6" width="13.5" height="13.5" rx="3" fill="#202b43"><title>2026-08-13: 0</title></rect><rect x="849.8" y="169" width="13.5" height="13.5" rx="3" fill="#202b43"><title>2026-08-14: 0</title></rect><rect x="849.8" y="186.39999999999998" width="13.5" height="13.5" rx="3" fill="#202b43"><title>2026-08-15: 0</title></rect><rect x="867.1999999999999" y="82" width="13.5" height="13.5" rx="3" fill="#202b43"><title>2026-08-16: 0</title></rect><rect x="867.1999999999999" y="99.4" width="13.5" height="13.5" rx="3" fill="#202b43"><title>2026-08-17: 0</title></rect><rect x="867.1999999999999" y="116.8" width="13.5" height="13.5" rx="3" fill="#202b43"><title>2026-08-18: 0</title></rect><rect x="867.1999999999999" y="134.2" width="13.5" height="13.5" rx="3" fill="#202b43"><title>2026-08-19: 0</title></rect><rect x="867.1999999999999" y="151.6" width="13.5" height="13.5" rx="3" fill="#202b43"><title>2026-08-20: 0</title></rect><rect x="867.1999999999999" y="169" width="13.5" height="13.5" rx="3" fill="#202b43"><title>2026-08-21: 0</title></rect><rect x="867.1999999999999" y="186.39999999999998" width="13.5" height="13.5" rx="3" fill="#202b43"><title>2026-08-22: 0</title></rect><rect x="884.5999999999999" y="82" width="13.5" height="13.5" rx="3" fill="#202b43"><title>2026-08-23: 0</title></rect><rect x="884.5999999999999" y="99.4" width="13.5" height="13.5" rx="3" fill="#202b43"><title>2026-08-24: 0</title></rect><rect x="884.5999999999999" y="116.8" width="13.5" height="13.5" rx="3" fill="#202b43"><title>2026-08-25: 0</title></rect><rect x="884.5999999999999" y="134.2" width="13.5" height="13.5" rx="3" fill="#202b43"><title>2026-08-26: 0</title></rect><rect x="884.5999999999999" y="151.6" width="13.5" height="13.5" rx="3" fill="#202b43"><title>2026-08-27: 0</title></rect><rect x="884.5999999999999" y="169" width="13.5" height="13.5" rx="3" fill="#202b43"><title>2026-08-28: 0</title></rect><rect x="884.5999999999999" y="186.39999999999998" width="13.5" height="13.5" rx="3" fill="#202b43"><title>2026-08-29: 0</title></rect><rect x="901.9999999999999" y="82" width="13.5" height="13.5" rx="3" fill="#202b43"><title>2026-08-30: 0</title></rect><rect x="901.9999999999999" y="99.4" width="13.5" height="13.5" rx="3" fill="#202b43"><title>2026-08-31: 0</title></rect><rect x="901.9999999999999" y="116.8" width="13.5" height="13.5" rx="3" fill="#202b43"><title>2026-09-01: 0</title></rect><rect x="901.9999999999999" y="134.2" width="13.5" height="13.5" rx="3" fill="#202b43"><title>2026-09-02: 0</title></rect><rect x="901.9999999999999" y="151.6" width="13.5" height="13.5" rx="3" fill="#202b43"><title>2026-09-03: 0</title></rect><rect x="901.9999999999999" y="169" width="13.5" height="13.5" rx="3" fill="#202b43"><title>2026-09-04: 0</title></rect><rect x="901.9999999999999" y="186.39999999999998" width="13.5" height="13.5" rx="3" fill="#202b43"><title>2026-09-05: 0</title></rect><rect x="919.4" y="82" width="13.5" height="13.5" rx="3" fill="#202b43"><title>2026-09-06: 0</title></rect><rect x="919.4" y="99.4" width="13.5" height="13.5" rx="3" fill="#202b43"><title>2026-09-07: 0</title></rect><rect x="919.4" y="116.8" width="13.5" height="13.5" rx="3" fill="#202b43"><title>2026-09-08: 0</title></rect><rect x="919.4" y="134.2" width="13.5" height="13.5" rx="3" fill="#202b43"><title>2026-09-09: 0</title></rect><rect x="919.4" y="151.6" width="13.5" height="13.5" rx="3" fill="#202b43"><title>2026-09-10: 0</title></rect><rect x="919.4" y="169" width="13.5" height="13.5" rx="3" fill="#5c65c0"><title>2026-09-11: 6</title></rect><rect x="919.4" y="186.39999999999998" width="13.5" height="13.5" rx="3" fill="#202b43"><title>2026-09-12: 0</title></rect><rect x="936.8" y="82" width="13.5" height="13.5" rx="3" fill="#202b43"><title>2026-09-13: 0</title></rect><rect x="936.8" y="99.4" width="13.5" height="13.5" rx="3" fill="#202b43"><title>2026-09-14: 0</title></rect><rect x="936.8" y="116.8" width="13.5" height="13.5" rx="3" fill="#202b43"><title>2026-09-15: 0</title></rect><rect x="936.8" y="134.2" width="13.5" height="13.5" rx="3" fill="#334b86"><title>2026-09-16: 2</title></rect><rect x="936.8" y="151.6" width="13.5" height="13.5" rx="3" fill="#334b86"><title>2026-09-17: 4</title></rect><rect x="936.8" y="169" width="13.5" height="13.5" rx="3" fill="#bdebf5"><title>2026-09-18: 18</title></rect><rect x="936.8" y="186.39999999999998" width="13.5" height="13.5" rx="3" fill="#202b43"><title>2026-09-19: 0</title></rect><text x="32" y="236" font-size="14" fill="#a6b1cc" >Daily contributions · public GitHub calendar</text><rect x="858" y="222" width="14" height="14" rx="3" fill="#202b43"/><rect x="878" y="222" width="14" height="14" rx="3" fill="#334b86"/><rect x="898" y="222" width="14" height="14" rx="3" fill="#5c65c0"/><rect x="918" y="222" width="14" height="14" rx="3" fill="#9382e6"/><rect x="938" y="222" width="14" height="14" rx="3" fill="#bdebf5"/></svg>